<svg width="475" height="242" viewBox="0 0 475 242" fill="none" xmlns="http://www.w3.org/2000/svg">
<path d="M356.203 159.103C346.648 162.38 331.233 163.217 322.249 160.951C310.774 158.041 301.413 152.682 293.052 144.239C280.863 131.938 275.748 119.687 275.748 102.792C275.748 86.1515 280.904 73.6458 292.613 61.865C321.412 32.8824 369.23 40.6512 387.115 77.2189C389.3 81.6801 391.148 86.0393 391.219 86.9172C391.28 87.785 391.709 86.4374 392.158 83.9056C392.608 81.3739 393.016 67.6533 393.057 53.4019L393.128 27.5024L388.534 31.7288C386.003 34.0666 382.807 36.486 381.429 37.1088C375.896 39.6303 369.332 33.3724 371.547 27.6861C372.078 26.3283 378.223 19.5804 385.206 12.6997C393.751 4.28769 397.804 0.0102283 401.867 1.95317e-05C405.807 -0.0101892 409.758 3.98142 417.793 12.1178C418.334 12.6588 418.885 13.2203 419.467 13.8022C433.984 28.4722 434.872 30.1362 430.829 35.2814C427.276 39.7835 422.713 39.028 416.19 32.8619C413.229 30.0545 410.555 27.7576 410.269 27.7576C409.973 27.7576 409.677 31.7798 409.605 36.6902C408.952 81.578 407.512 98.8104 403.459 110.591C395.65 133.316 377.723 151.722 356.203 159.103ZM320.769 150.222C336.735 154.938 353.355 151.365 366.218 140.452C391.066 119.381 388.432 78.8625 361.093 61.5995C352.548 56.1991 345.719 54.3003 334.857 54.3003C314.776 54.3003 298.371 64.1926 289.959 81.3534C276.657 108.509 291.449 141.585 320.769 150.222ZM431.921 212.536V240.099H413.546V158.429H433.289C454.871 158.429 459.985 159.297 466.172 164.014C472.195 168.607 474.267 173.845 474.277 184.462C474.288 192.373 473.93 194.282 471.735 198.192C466.437 207.625 455.269 212.536 439.119 212.536H431.921ZM383.43 239.967C368.648 243.703 352.773 240.538 344.943 232.279C343.432 230.687 341.135 227.083 339.839 224.276C337.613 219.437 337.47 217.803 337.174 193.068L336.858 166.964L344.831 165.759C349.22 165.085 353.375 164.544 354.08 164.544C355.07 164.555 355.356 170.19 355.356 189.311C355.356 210.841 355.591 214.526 357.142 217.62C362.441 228.155 378.142 228.645 383.603 218.447C385.165 215.527 385.451 211.392 385.798 186.759L386.196 158.429H403.337V187.341C403.337 218.304 402.765 222.826 397.977 229.942C395.058 234.27 388.738 238.629 383.43 239.967ZM98.9839 238.231C86.7947 244.305 71.502 242.008 62.6816 232.79C57.1485 227.001 55.2701 221.458 55.2395 210.841C55.2191 202.255 55.4947 200.959 58.5471 195.058C63.9169 184.676 70.9303 180.899 84.8244 180.909C101.414 180.909 110.938 190.219 112.133 207.584L112.684 215.598H70.2769L70.9303 218.865C71.941 223.929 74.1358 226.471 79.1279 228.38C84.6406 230.493 87.6624 229.901 92.338 225.797C95.5538 222.979 96.4011 222.744 103.659 222.744C111.316 222.744 111.49 222.806 110.836 225.041C109.407 229.982 104.415 235.526 98.9839 238.231ZM203.756 201.133L203.123 240.099H186.912V181.909H203.246V189.219L207.493 185.574C212.383 181.389 216.292 180.399 224.858 181.174C232.78 181.899 237.925 185.248 241.151 191.792C243.427 196.416 243.591 198.009 243.917 218.447L244.254 240.181L235.75 239.885L227.236 239.589L226.215 200.101L223.347 197.641C219.028 193.925 211.566 194.17 207.094 198.162L203.756 201.133ZM136.889 221.142V240.099H128.691C123.025 240.099 120.341 239.701 119.993 238.813C119.718 238.098 119.626 225.123 119.769 209.973L120.045 182.42L136.889 181.828V188.392L139.196 186.218C146.526 179.337 162.503 179.102 169.884 185.779C170.945 186.738 172.783 189.362 173.977 191.608C175.937 195.324 176.172 197.682 176.519 217.895L176.907 240.099H160.369V222.387C160.369 202.797 159.593 198.948 155.203 196.682C149.517 193.741 140.411 195.61 137.94 200.224C137.328 201.378 136.889 210.096 136.889 221.142ZM39.9059 172.793V240.099H31.1979C25.0114 240.099 22.3367 239.711 21.9794 238.782C21.7038 238.047 21.6017 222.908 21.7548 205.124L22.0407 172.783L11.3215 172.497L0.602312 172.211L0.296046 165.32L0 158.429H62.457L62.161 165.32L61.8547 172.211L50.8803 172.497L39.9059 172.793ZM319.115 239.038C314.848 240.896 304.608 242.192 300.229 241.447C292.95 240.201 287.927 237.721 283.976 233.433C281.679 230.942 279.811 228.257 279.811 227.44C279.811 226.634 279.536 225.246 279.189 224.357C278.658 222.969 279.709 222.744 286.733 222.744C294.042 222.744 294.941 222.959 295.42 224.796C296.023 227.083 301.78 229.891 305.864 229.891C309.621 229.891 314.255 227.236 315.093 224.602C316.144 221.274 312.816 219.151 303.567 217.221C287.907 213.965 280.812 208.33 280.853 199.142C280.893 188.382 288.856 181.818 302.74 181.093C317.91 180.307 325.802 184.717 329.262 195.946C329.946 198.172 329.763 198.243 322.831 198.243C316.267 198.243 315.45 197.998 312.632 195.181C310.121 192.669 308.733 192.118 304.904 192.118C301.586 192.118 299.637 192.71 298.187 194.16C293.338 199.009 297.809 203.072 310.366 205.236C323.311 207.472 330.855 213.577 330.855 221.805C330.855 229.492 326.547 235.822 319.115 239.038ZM271.644 181.909V240.099H264.161C260.037 240.099 256.392 239.824 256.056 239.477C255.208 238.639 255.096 193.17 255.933 186.922L256.597 181.909H271.644ZM432.605 196.539C434.004 197.947 447.439 197.223 450.95 195.559C456.963 192.7 459.189 185.186 455.902 178.826C453.656 174.488 451.492 173.742 441.181 173.742H431.921V184.799C431.921 190.883 432.228 196.171 432.605 196.539ZM268.643 173.712C261.18 177.703 251.88 169.118 255.688 161.757C257.352 158.542 261.139 156.388 265.131 156.388C268.296 156.388 273.686 161.512 273.686 164.524C273.686 167.546 270.991 172.456 268.643 173.712ZM71.0732 204.41C71.3999 204.951 77.1576 205.39 83.8648 205.39C95.4721 205.39 96.054 205.287 96.054 203.297C96.054 194.599 84.8754 189.29 76.8514 194.191C73.4927 196.232 69.9196 202.552 71.0732 204.41Z" fill="#0F191B"/>
<path d="M320.768 150.222C308.406 146.577 298.626 138.594 292.439 128.528L295.747 125.557C303.158 118.901 305.476 115.951 308.845 108.917C315.245 95.5232 315.94 85.5594 311.499 70.8691C308.763 61.8343 308.497 61.0891 304.853 63.4882C313.122 57.5263 323.392 54.3003 334.856 54.3003C345.718 54.3003 352.548 56.1991 361.093 61.5995C366.412 64.9582 370.791 69.1948 374.221 73.9929C372.71 72.9823 370.771 73.8296 366.81 76.4737C354.937 84.4059 347.015 97.0443 345.045 111.224C343.473 122.556 345.504 131.979 351.874 142.861C353.906 146.322 354.723 147.394 356.621 146.894C345.606 152.58 332.998 153.835 320.768 150.222ZM362.267 143.494L360.674 141.759C359.551 140.544 357.55 137.011 356.233 133.928C354.181 129.151 353.824 126.65 353.855 117.084C353.875 106.406 354.049 105.507 357.316 98.9227C360.97 91.5622 367.82 84.4671 374.201 81.4453C376.763 80.2305 377.498 79.8425 377.151 78.6583C387.983 98.2897 384.716 124.761 366.218 140.452C364.942 141.534 363.614 142.555 362.267 143.494ZM301.331 66.3058C300.882 66.8672 300.78 67.2858 301.096 67.4798C303.679 69.0723 305.68 77.372 305.67 86.4578C305.659 98.545 302.403 106.937 294.491 115.308C291.469 118.503 288.999 121.259 288.999 121.433C288.999 121.555 289.356 122.505 289.856 123.771C283.7 110.816 283.129 95.3088 289.958 81.3534C292.858 75.4426 296.706 70.3893 301.331 66.3058Z" fill="#DDD915"/>
</svg>
